<?xml version="1.0" encoding="UTF-8" standalone="no"?>
<svg
   viewBox="0 0 512 512"
   version="1.1"
   id="svg1"
   sodipodi:docname="a.svg"
   inkscape:version="1.3.2 (091e20e, 2023-11-25)"
   xml:space="preserve"
   xmlns:inkscape="http://www.inkscape.org/namespaces/inkscape"
   xmlns:sodipodi="http://sodipodi.sourceforge.net/DTD/sodipodi-0.dtd"
   xmlns="http://www.w3.org/2000/svg"
   xmlns:svg="http://www.w3.org/2000/svg"><defs
     id="defs1" /><sodipodi:namedview
     id="namedview1"
     pagecolor="#ffffff"
     bordercolor="#666666"
     borderopacity="1.0"
     inkscape:showpageshadow="2"
     inkscape:pageopacity="0.0"
     inkscape:pagecheckerboard="0"
     inkscape:deskcolor="#d1d1d1"
     inkscape:zoom="1.7100756"
     inkscape:cx="286.82943"
     inkscape:cy="287.70658"
     inkscape:window-width="1920"
     inkscape:window-height="1027"
     inkscape:window-x="1920"
     inkscape:window-y="25"
     inkscape:window-maximized="1"
     inkscape:current-layer="svg1" /><path
     id="path9"
     style="fill:#0000ac;fill-opacity:1;stroke-width:1.45715"
     d="M 252.96094 54.230469 C 239.02157 54.473297 225.02277 55.787373 214.16992 58.121094 C 180.08235 65.45104 149.55531 80.898136 124.4082 102.44922 L 157.09375 135.13477 L 146.08398 146.14648 L 112.95508 113.01562 C 112.75942 113.21158 112.54447 113.38916 112.34961 113.58594 C 85.194367 141.00798 65.825995 176.35355 57.251953 216.58203 C 56.108203 221.94722 55.356393 229.88663 54.914062 238.66211 L 169.68359 238.66016 L 169.68359 254.23242 L 54.480469 254.23242 C 54.409069 270.094 55.318142 286.20161 57.255859 295.26953 C 64.902083 331.06283 79.7524 361.41783 102.61133 387.86719 L 184.11523 306.36133 L 195.12695 317.37305 L 113.2207 399.27734 C 116.01548 402.08202 118.87294 404.8582 121.86914 407.57422 C 151.46941 434.40664 190.64644 451.85989 233.84375 457.46484 C 235.46861 457.67568 238.17113 457.77972 240.67969 457.90234 L 240.67969 404.43555 L 256.25 404.43555 L 256.25 458.19531 C 266.21574 458.11304 276.50318 457.67718 282.08789 456.90039 C 323.29834 451.16855 358.58156 435.11236 389.08984 408.23633 L 313.24219 332.38867 L 324.25391 321.37695 L 400.42773 397.55078 C 434.70605 362.8719 454.52835 317.46028 457.65039 269.80273 L 350.42773 269.80273 L 350.42773 254.23242 L 458.02344 254.23242 C 457.84532 238.11109 455.84072 221.84766 451.75391 205.75 C 443.8432 174.59037 428.753 146.61694 408.45117 123.31641 L 332.66992 199.09766 L 321.66016 188.08789 L 397.77344 111.97266 C 369.34214 84.033556 332.66423 64.393328 291.39844 56.777344 C 285.15451 55.624994 277.72968 54.909959 269.88086 54.527344 L 269.88086 162.07031 L 254.31055 162.07031 L 254.31055 54.230469 C 253.85831 54.236069 253.41341 54.222669 252.96094 54.230469 z " /><path
     style="fill:#ffffff;fill-opacity:1;stroke-width:1.21389"
     d="m 253.51581,87.949415 c -11.61235,0.202289 -23.27302,1.299549 -32.31414,3.243683 C 155.01952,105.42444 104.7654,156.17229 90.480025,223.19784 c -3.109453,14.58578 -3.106617,50.9884 0.0049,65.55137 8.011219,37.50188 25.474548,67.85467 53.825828,93.5547 24.65887,22.35308 57.29344,36.8932 93.27944,41.56246 7.987,1.03636 31.31344,0.76468 40.19044,-0.47002 38.47982,-5.35209 70.76999,-21.47588 98.19159,-49.02804 41.53108,-41.72913 57.8485,-102.29983 43.15041,-160.19436 C 402.92127,150.35796 351.03969,102.15984 285.53842,90.070941 276.69271,88.438401 265.12868,87.74714 253.51648,87.949422 Z"
     id="path8" /><path
     style="fill:#0000ac;fill-opacity:1;stroke-width:0.638269"
     d="m 254.83031,167.73802 c -6.10582,0.10636 -12.23705,0.68331 -16.99091,1.70555 -34.79885,7.48289 -61.2227,34.16632 -68.73401,69.40866 -1.63496,7.66927 -1.63347,26.80992 0.003,34.46719 4.21233,19.71865 13.39462,35.67828 28.30185,49.19146 12.96574,11.75334 30.12514,19.39861 49.04673,21.85372 4.19961,0.54492 16.46475,0.40208 21.13232,-0.24713 20.23284,-2.81416 37.21115,-11.29211 51.62954,-25.77916 21.8372,-21.94138 30.41698,-53.78969 22.68867,-84.23088 -8.51875,-33.55473 -35.79831,-58.8975 -70.23916,-65.25391 -4.6511,-0.85839 -10.73153,-1.22186 -16.83727,-1.11549 z"
     id="path2" /><path
     id="rect9"
     style="fill:#0000ac;fill-opacity:1;stroke-width:66.9141;stroke-miterlimit:33.2"
     d="M 254.30859 4.1835938 L 209.03516 94.273438 C 213.02617 93.109605 217.07995 92.079137 221.19922 91.193359 C 230.24028 89.249227 241.90332 88.151501 253.51562 87.949219 L 253.51758 87.949219 C 253.78345 87.944619 254.04279 87.952819 254.30859 87.949219 L 254.30859 4.1835938 z M 433.30469 76.443359 L 336.84766 108.37305 C 350.48438 115.83446 362.94221 125.07062 373.92578 135.82227 L 433.30469 76.443359 z M 78.146484 78.208984 L 109.53516 173.02734 C 117.07682 159.73028 126.31833 147.66998 136.95312 137.01562 L 78.146484 78.208984 z M 417.48438 208.58203 C 418.0274 210.44772 418.64032 212.28011 419.12109 214.17383 C 422.4976 227.47373 424.16271 240.91095 424.33594 254.23242 L 508.31641 254.23242 L 417.48438 208.58203 z M 8.1953125 254.23242 L 4.2597656 256.20898 L 93.558594 301.08984 C 92.420061 297.05953 91.383015 292.95667 90.484375 288.75 C 88.856766 281.13224 88.101648 267.55331 88.175781 254.23242 L 8.1953125 254.23242 z M 404.00195 336.67578 C 396.70546 350.0698 387.56053 362.56192 376.58398 373.71094 L 435.89844 433.02148 L 404.00195 336.67578 z M 137.13477 375.36328 L 78.306641 434.19141 L 78.283203 434.26172 L 173.09961 402.87305 C 162.65748 397.03454 152.98141 390.16475 144.31055 382.30469 C 141.81054 380.03847 139.45996 377.70692 137.13477 375.36328 z M 301.38086 418.51367 C 293.77757 420.61818 285.92672 422.26353 277.78125 423.39648 C 273.11883 424.04497 264.55168 424.36004 256.25 424.42188 L 256.25 508.16016 L 256.28906 508.23828 L 301.38086 418.51367 z " /></svg>
