<?xml version="1.0" encoding="UTF-8" standalone="no"?>
<svg
   viewBox="0 0 512 512"
   version="1.1"
   id="svg1"
   sodipodi:docname="a.svg"
   inkscape:version="1.4 (e7c3feb1, 2024-10-09)"
   xml:space="preserve"
   xmlns:inkscape="http://www.inkscape.org/namespaces/inkscape"
   xmlns:sodipodi="http://sodipodi.sourceforge.net/DTD/sodipodi-0.dtd"
   xmlns="http://www.w3.org/2000/svg"
   xmlns:svg="http://www.w3.org/2000/svg"><defs
     id="defs1" /><sodipodi:namedview
     id="namedview1"
     pagecolor="#ffffff"
     bordercolor="#666666"
     borderopacity="1.0"
     inkscape:showpageshadow="2"
     inkscape:pageopacity="0.0"
     inkscape:pagecheckerboard="0"
     inkscape:deskcolor="#d1d1d1"
     inkscape:zoom="0.8550378"
     inkscape:cx="287.12181"
     inkscape:cy="287.12181"
     inkscape:window-width="1472"
     inkscape:window-height="916"
     inkscape:window-x="0"
     inkscape:window-y="38"
     inkscape:window-maximized="1"
     inkscape:current-layer="svg1" /><path
     id="path9"
     style="fill:#0000ac;fill-opacity:1;stroke-width:1.45715"
     d="M 252.96094 54.230469 C 239.02157 54.473297 225.02277 55.787373 214.16992 58.121094 C 180.08235 65.45104 149.55531 80.898135 124.4082 102.44922 L 148.44141 126.48242 C 169.00614 109.4055 193.69516 97.108058 221.20117 91.193359 C 230.24229 89.249225 241.90328 88.151508 253.51562 87.949219 C 253.7821 87.944577 254.04416 87.954872 254.31055 87.951172 L 254.31055 54.230469 C 253.85831 54.236069 253.41341 54.222669 252.96094 54.230469 z M 269.88086 54.527344 L 269.88086 88.292969 C 275.57985 88.639451 280.93599 89.220783 285.53906 90.070312 C 319.80367 96.39418 350.27116 112.66929 373.92383 135.82227 L 397.77344 111.97266 C 369.34214 84.033552 332.66423 64.393328 291.39844 56.777344 C 285.15451 55.624994 277.72968 54.909959 269.88086 54.527344 z M 112.95508 113.01562 C 112.75942 113.21158 112.54447 113.38916 112.34961 113.58594 C 85.194366 141.00798 65.825995 176.35355 57.251953 216.58203 C 56.108203 221.94722 55.356393 229.88663 54.914062 238.66211 L 88.675781 238.66211 C 89.062621 232.52856 89.654657 227.07097 90.480469 223.19727 C 97.673411 189.4487 114.00011 159.84475 136.87305 136.93359 L 112.95508 113.01562 z M 408.45117 123.31641 L 384.54492 147.22266 C 400.70341 166.28619 412.72754 188.98237 419.12305 214.17383 C 422.49971 227.47424 424.16281 240.91043 424.33594 254.23242 L 458.02344 254.23242 C 457.84532 238.11109 455.84072 221.84766 451.75391 205.75 C 443.8432 174.59037 428.753 146.61694 408.45117 123.31641 z M 54.480469 254.23242 C 54.409069 270.094 55.318142 286.20161 57.255859 295.26953 C 64.902083 331.06283 79.752398 361.41783 102.61133 387.86719 L 126.58008 363.89844 C 108.49514 342.33341 96.663601 317.67601 90.484375 288.75 C 88.856777 281.13228 88.103613 267.55326 88.177734 254.23242 L 54.480469 254.23242 z M 423.86523 269.80273 C 420.8019 308.56594 404.45462 345.40195 376.58594 373.70898 L 400.42773 397.55078 C 434.70605 362.8719 454.52835 317.46028 457.65039 269.80273 L 423.86523 269.80273 z M 137.10547 375.39258 L 113.2207 399.27734 C 116.01548 402.08202 118.87294 404.8582 121.86914 407.57422 C 151.46941 434.40664 190.64644 451.85989 233.84375 457.46484 C 235.46861 457.67568 238.17113 457.77972 240.67969 457.90234 L 240.67969 424.06445 C 239.709 423.99101 238.32429 423.96249 237.58984 423.86719 C 201.60384 419.19793 168.96942 404.65777 144.31055 382.30469 C 141.81446 380.04202 139.43374 377.72908 137.10547 375.39258 z M 365.21875 384.36523 C 340.19674 405.85937 311.3447 418.7282 277.78125 423.39648 C 273.12758 424.04376 264.55403 424.40637 256.25 424.47461 L 256.25 458.19531 C 266.21574 458.11304 276.50318 457.67718 282.08789 456.90039 C 323.29834 451.16855 358.58156 435.11236 389.08984 408.23633 L 365.21875 384.36523 z " /><path
     style="fill:#0000ac;fill-opacity:1;stroke-width:0.638269"
     d="m 254.83031,167.73802 c -6.10582,0.10636 -12.23705,0.68331 -16.99091,1.70555 -34.79885,7.48289 -61.2227,34.16632 -68.73401,69.40866 -1.63496,7.66927 -1.63347,26.80992 0.003,34.46719 4.21233,19.71865 13.39462,35.67828 28.30185,49.19146 12.96574,11.75334 30.12514,19.39861 49.04673,21.85372 4.19961,0.54492 16.46475,0.40208 21.13232,-0.24713 20.23284,-2.81416 37.21115,-11.29211 51.62954,-25.77916 21.8372,-21.94138 30.41698,-53.78969 22.68867,-84.23088 -8.51875,-33.55473 -35.79831,-58.8975 -70.23916,-65.25391 -4.6511,-0.85839 -10.73153,-1.22186 -16.83727,-1.11549 z"
     id="path2" /><path
     id="rect9"
     style="fill:#0000ac;fill-opacity:1;stroke-width:66.9141;stroke-miterlimit:33.2"
     d="M 254.30859 4.1835938 L 209.03516 94.273438 C 213.02617 93.109605 217.07995 92.079137 221.19922 91.193359 C 230.24028 89.249227 241.90332 88.151501 253.51562 87.949219 L 253.51758 87.949219 C 253.78345 87.944619 254.04279 87.952819 254.30859 87.949219 L 254.30859 4.1835938 z M 433.30469 76.443359 L 336.84766 108.37305 C 350.48438 115.83446 362.94221 125.07062 373.92578 135.82227 L 433.30469 76.443359 z M 78.146484 78.208984 L 109.53516 173.02734 C 117.07682 159.73028 126.31833 147.66998 136.95312 137.01562 L 78.146484 78.208984 z M 417.48438 208.58203 C 418.0274 210.44772 418.64032 212.28011 419.12109 214.17383 C 422.4976 227.47373 424.16271 240.91095 424.33594 254.23242 L 508.31641 254.23242 L 417.48438 208.58203 z M 8.1953125 254.23242 L 4.2597656 256.20898 L 93.558594 301.08984 C 92.420061 297.05953 91.383015 292.95667 90.484375 288.75 C 88.856766 281.13224 88.101648 267.55331 88.175781 254.23242 L 8.1953125 254.23242 z M 404.00195 336.67578 C 396.70546 350.0698 387.56053 362.56192 376.58398 373.71094 L 435.89844 433.02148 L 404.00195 336.67578 z M 137.13477 375.36328 L 78.306641 434.19141 L 78.283203 434.26172 L 173.09961 402.87305 C 162.65748 397.03454 152.98141 390.16475 144.31055 382.30469 C 141.81054 380.03847 139.45996 377.70692 137.13477 375.36328 z M 301.38086 418.51367 C 293.77757 420.61818 285.92672 422.26353 277.78125 423.39648 C 273.11883 424.04497 264.55168 424.36004 256.25 424.42188 L 256.25 508.16016 L 256.28906 508.23828 L 301.38086 418.51367 z " /></svg>
