<?xml version="1.0" encoding="UTF-8" standalone="no"?>
<svg
   viewBox="0 0 512 512"
   version="1.1"
   id="svg1"
   sodipodi:docname="b.svg"
   inkscape:version="1.3.2 (091e20e, 2023-11-25)"
   xml:space="preserve"
   xmlns:inkscape="http://www.inkscape.org/namespaces/inkscape"
   xmlns:sodipodi="http://sodipodi.sourceforge.net/DTD/sodipodi-0.dtd"
   xmlns="http://www.w3.org/2000/svg"
   xmlns:svg="http://www.w3.org/2000/svg"><defs
     id="defs1" /><sodipodi:namedview
     id="namedview1"
     pagecolor="#ffffff"
     bordercolor="#666666"
     borderopacity="1.0"
     inkscape:showpageshadow="2"
     inkscape:pageopacity="0.0"
     inkscape:pagecheckerboard="0"
     inkscape:deskcolor="#d1d1d1"
     inkscape:zoom="0.44475144"
     inkscape:cx="290.04965"
     inkscape:cy="530.63347"
     inkscape:window-width="1664"
     inkscape:window-height="1027"
     inkscape:window-x="2176"
     inkscape:window-y="25"
     inkscape:window-maximized="0"
     inkscape:current-layer="svg1" /><g
     id="g1"
     transform="matrix(1.0302916,0,0,1.0302916,-7.7262036,-6.0331268)"><path
       id="path5"
       style="fill:#ff0000;fill-opacity:1;stroke-width:0.559885"
       d="m 314.61523,64.830078 c 0.37345,12.57999 -3.24012,24.891444 -10.37109,35.171872 l 64.65625,37.32813 c 0.12931,-2.55109 0.34682,-4.85924 0.67969,-6.41992 2.17432,-10.20165 6.73455,-19.32142 13.0918,-26.78711 z m -117.67968,0.585938 -67.1875,38.789064 c 5.70191,6.69604 9.94436,14.68063 12.19531,23.54687 0.81322,3.2032 1.32256,6.42823 1.60156,9.64844 l 63.9375,-36.91601 c -4.72153,-6.636872 -7.93127,-14.080656 -9.74609,-22.576177 -0.58652,-2.745557 -0.84557,-7.699 -0.80078,-12.492187 z m 58.06836,112.976564 c -5.35598,0.0933 -10.73426,0.59939 -14.9043,1.49609 -30.5253,6.56394 -53.7041,29.97045 -60.29297,60.88477 -1.43417,6.72742 -1.43287,23.51746 0.002,30.23437 3.69503,17.29705 11.74967,31.29672 24.82618,43.15039 11.37345,10.30994 26.42555,17.01631 43.02343,19.16992 3.68386,0.478 14.44276,0.35269 18.53711,-0.21679 17.74811,-2.46855 32.64136,-9.90535 45.28907,-22.61328 19.15546,-19.2468 26.68156,-47.18393 19.90234,-73.88672 -7.47259,-29.43396 -31.40202,-51.66446 -61.61328,-57.24024 -4.07992,-0.75298 -9.41362,-1.07181 -14.76953,-0.97851 z m 196.00195,18.24414 c -4.92334,2.13022 -10.1881,3.58892 -15.83984,4.375 -3.10844,0.43235 -11.27552,0.5289 -14.07227,0.16601 h -0.002 c -1.94453,-0.25231 -3.84782,-0.61501 -5.73047,-1.02929 v 92.85351 c 6.33198,-1.36042 16.32848,-1.5336 22.52148,-0.39062 4.59014,0.84714 8.97693,2.22103 13.12305,4.02344 z m -389.449219,0.008 v 99.91797 c 3.523241,-1.51026 7.215707,-2.72721 11.082031,-3.55859 6.331676,-1.36153 16.334461,-1.5359 22.529297,-0.39258 0.687118,0.12681 1.354855,0.30185 2.033203,0.45117 l 0.002,-92.89062 c -1.554319,0.33357 -3.136105,0.61509 -4.751953,0.83984 -3.108422,0.43235 -11.277487,0.5289 -14.074219,0.16601 -5.924451,-0.76868 -11.583177,-2.31128 -16.820312,-4.5332 z m 78.162109,175.74609 c -2.86476,7.29775 -7.18653,14.04413 -12.88477,19.76954 -3.14149,3.15647 -6.46943,5.8758 -9.99218,8.18359 l 80.0957,46.24414 c -0.0532,-4.84379 0.20557,-9.8825 0.79883,-12.66406 1.76794,-8.29495 5.13564,-15.85604 9.74023,-22.41406 z m 232.96094,0.0957 -68.39258,39.48633 c 3.8639,5.61504 6.78649,11.94361 8.52539,18.79296 1.38341,5.44912 1.95686,10.96234 1.81055,16.4004 l 80.98242,-46.75586 c -2.55673,-1.63636 -4.95955,-3.46172 -7.17578,-5.47071 -7.18915,-6.51684 -12.36855,-13.89546 -15.75,-22.45312 z" /><path
       style="fill:#ff0000;fill-opacity:1;stroke-width:0.323095"
       d="m 250.818,111.13992 c -9.57829,-1.24284 -18.26387,-5.11299 -24.82729,-11.06265 -7.54617,-6.840487 -12.19446,-14.91971 -14.32675,-24.901448 -0.82805,-3.876199 -0.82879,-13.56489 -7.6e-4,-17.447153 3.80231,-17.839995 17.1781,-31.346997 34.7936,-35.134879 4.81286,-1.034929 12.41522,-1.167347 17.12405,-0.298288 17.43429,3.21764 31.24244,16.04592 35.55474,33.031643 3.91215,15.409629 -0.42991,31.530534 -11.48412,42.637458 -7.29871,7.333507 -15.8937,11.624967 -26.13576,13.049497 -2.36279,0.32863 -8.57126,0.40166 -10.69712,0.12582 z"
       id="path16" /><path
       style="fill:#ff0000;fill-opacity:1;stroke-width:0.323095"
       d="m 250.818,490.10862 c -9.57829,-1.24284 -18.26387,-5.11299 -24.82729,-11.06264 -7.54617,-6.84049 -12.19446,-14.91972 -14.32675,-24.90145 -0.82805,-3.8762 -0.82879,-13.5649 -7.6e-4,-17.44716 3.80231,-17.83999 17.1781,-31.347 34.7936,-35.13488 4.81286,-1.03493 12.41522,-1.16734 17.12405,-0.29829 17.43429,3.21765 31.24244,16.04593 35.55474,33.03165 3.91215,15.40963 -0.42991,31.53053 -11.48412,42.63746 -7.29871,7.3335 -15.8937,11.62496 -26.13576,13.04949 -2.36279,0.32863 -8.57126,0.40166 -10.69712,0.12582 z"
       id="path18" /><path
       style="fill:#ff0000;fill-opacity:1;stroke-width:0.323095"
       d="m 79.94776,395.41 c -9.57829,-1.24284 -18.26387,-5.11299 -24.82729,-11.06264 -7.54617,-6.84049 -12.19446,-14.91972 -14.32675,-24.90145 -0.82805,-3.8762 -0.82879,-13.5649 -7.6e-4,-17.44716 3.80231,-17.83999 17.1781,-31.347 34.7936,-35.13488 4.81286,-1.03493 12.41522,-1.16734 17.12405,-0.29829 17.43429,3.21765 31.24244,16.04593 35.55474,33.03165 3.91215,15.40963 -0.42991,31.53053 -11.48412,42.63746 -7.29871,7.3335 -15.8937,11.62496 -26.13576,13.04949 -2.36279,0.32863 -8.57126,0.40166 -10.69712,0.12582 z"
       id="path20" /><path
       style="fill:#ff0000;fill-opacity:1;stroke-width:0.323095"
       d="m 422.66268,395.41 c -9.57829,-1.24284 -18.26387,-5.11299 -24.82729,-11.06264 -7.54617,-6.84049 -12.19446,-14.91972 -14.32675,-24.90145 -0.82805,-3.8762 -0.82879,-13.5649 -7.6e-4,-17.44716 3.80231,-17.83999 17.1781,-31.347 34.7936,-35.13488 4.81286,-1.03493 12.41522,-1.16734 17.12405,-0.29829 17.43429,3.21765 31.24244,16.04593 35.55474,33.03165 3.91215,15.40963 -0.42991,31.53053 -11.48412,42.63746 -7.29871,7.3335 -15.8937,11.62496 -26.13576,13.04949 -2.36279,0.32863 -8.57126,0.40166 -10.69712,0.12582 z"
       id="path22" /><path
       style="fill:#ff0000;fill-opacity:1;stroke-width:0.323095"
       d="m 79.94776,187.09491 c -9.57829,-1.24284 -18.26387,-5.11299 -24.82729,-11.06265 -7.54617,-6.84049 -12.19446,-14.91971 -14.32675,-24.90145 -0.82805,-3.8762 -0.82879,-13.56489 -7.6e-4,-17.44715 3.80231,-17.84 17.1781,-31.347 34.7936,-35.134881 4.81286,-1.034929 12.41522,-1.167347 17.12405,-0.298288 17.43429,3.217639 31.24244,16.045919 35.55474,33.031639 3.91215,15.40963 -0.42991,31.53054 -11.48412,42.63746 -7.29871,7.33351 -15.8937,11.62497 -26.13576,13.0495 -2.36279,0.32863 -8.57126,0.40166 -10.69712,0.12582 z"
       id="path24" /><path
       style="fill:#ff0000;fill-opacity:1;stroke-width:0.323095"
       d="m 422.66268,187.09491 c -9.57829,-1.24284 -18.26387,-5.11299 -24.82729,-11.06265 -7.54617,-6.84049 -12.19446,-14.91971 -14.32675,-24.90145 -0.82805,-3.8762 -0.82879,-13.56489 -7.6e-4,-17.44715 3.80231,-17.84 17.1781,-31.347 34.7936,-35.134881 4.81286,-1.034929 12.41522,-1.167347 17.12405,-0.298288 17.43429,3.217639 31.24244,16.045919 35.55474,33.031639 3.91215,15.40963 -0.42991,31.53054 -11.48412,42.63746 -7.29871,7.33351 -15.8937,11.62497 -26.13576,13.0495 -2.36279,0.32863 -8.57126,0.40166 -10.69712,0.12582 z"
       id="path26" /></g></svg>
