<?xml version="1.0" encoding="UTF-8" standalone="no"?>
<svg
   viewBox="0 0 512 512"
   version="1.1"
   id="svg1"
   sodipodi:docname="d.svg"
   inkscape:version="1.3.2 (091e20e, 2023-11-25)"
   xml:space="preserve"
   xmlns:inkscape="http://www.inkscape.org/namespaces/inkscape"
   xmlns:sodipodi="http://sodipodi.sourceforge.net/DTD/sodipodi-0.dtd"
   xmlns="http://www.w3.org/2000/svg"
   xmlns:svg="http://www.w3.org/2000/svg"><defs
     id="defs1" /><sodipodi:namedview
     id="namedview1"
     pagecolor="#ffffff"
     bordercolor="#666666"
     borderopacity="1.0"
     inkscape:showpageshadow="2"
     inkscape:pageopacity="0.0"
     inkscape:pagecheckerboard="0"
     inkscape:deskcolor="#d1d1d1"
     inkscape:zoom="0.60081052"
     inkscape:cx="356.18551"
     inkscape:cy="389.47387"
     inkscape:window-width="1920"
     inkscape:window-height="1027"
     inkscape:window-x="1920"
     inkscape:window-y="25"
     inkscape:window-maximized="1"
     inkscape:current-layer="svg1" /><path
     id="path1"
     style="color:#000000;fill:#005a40;-inkscape-stroke:none;fill-opacity:1"
     d="M 256.2832 13.320312 L 215.48828 30.802734 L 233.79883 68.34375 L 256.2832 58.707031 L 425.88672 131.39648 L 425.88672 223.29688 C 425.88672 248.21933 421.11153 272.50644 412.26367 295.08398 L 459.73242 283.73242 C 464.85129 264.20878 467.60547 243.93419 467.60547 223.29688 L 467.60547 103.88672 L 256.2832 13.320312 z M 175.41602 47.976562 L 44.958984 103.88672 L 44.958984 223.29688 C 44.958984 266.01738 56.451031 307.27288 77.347656 343.20312 L 99.734375 293.69141 C 91.236666 271.5105 86.677734 247.70449 86.677734 223.29688 L 86.677734 131.39648 L 193.72461 85.517578 L 175.41602 47.976562 z M 440.83984 333.02344 L 381.9668 347.10156 C 370.93374 360.72568 358.07527 373.01609 343.46875 383.44922 L 256.2832 445.72656 L 169.0957 383.44922 C 152.42815 371.54371 137.9846 357.26077 126.00977 341.27734 L 106.91406 383.50781 C 118.23183 395.98487 130.86561 407.40922 144.84766 417.39648 L 256.2832 496.99414 L 367.7168 417.39648 C 398.8658 395.1474 423.71065 366.08147 440.83984 333.02344 z " /><path
     style="fill:#005a40;fill-opacity:1;stroke-width:0.559885"
     d="m 247.65808,319.17001 c -16.59802,-2.15368 -31.64907,-8.86018 -43.02266,-19.17019 -13.07658,-11.85374 -21.13149,-25.85405 -24.82652,-43.15117 -1.43489,-6.71698 -1.43617,-23.50629 -0.002,-30.23378 6.58894,-30.91453 29.76755,-54.3205 60.29306,-60.88444 8.34009,-1.7934 21.51404,-2.02287 29.67388,-0.5169 30.21147,5.57578 54.13933,27.80562 61.61199,57.23979 6.77929,26.703 -0.74497,54.63856 -19.90057,73.8855 -12.64778,12.70807 -27.54182,20.14462 -45.29007,22.61317 -4.09442,0.56948 -14.85293,0.69602 -18.53679,0.21802 z"
     id="path5" /></svg>
