<?xml version="1.0" encoding="UTF-8" standalone="no"?>
<svg
   viewBox="0 0 512 512"
   version="1.1"
   id="svg1"
   sodipodi:docname="s.svg"
   inkscape:version="1.3.2 (091e20e, 2023-11-25)"
   xml:space="preserve"
   xmlns:inkscape="http://www.inkscape.org/namespaces/inkscape"
   xmlns:sodipodi="http://sodipodi.sourceforge.net/DTD/sodipodi-0.dtd"
   xmlns="http://www.w3.org/2000/svg"
   xmlns:svg="http://www.w3.org/2000/svg"><defs
     id="defs1" /><sodipodi:namedview
     id="namedview1"
     pagecolor="#ffffff"
     bordercolor="#666666"
     borderopacity="1.0"
     inkscape:showpageshadow="2"
     inkscape:pageopacity="0.0"
     inkscape:pagecheckerboard="0"
     inkscape:deskcolor="#d1d1d1"
     inkscape:zoom="0.60081052"
     inkscape:cx="469.36595"
     inkscape:cy="444.39967"
     inkscape:window-width="1664"
     inkscape:window-height="1027"
     inkscape:window-x="181"
     inkscape:window-y="66"
     inkscape:window-maximized="0"
     inkscape:current-layer="svg1" /><path
     style="fill:#ff6600;stroke-width:0.64894"
     d="m 234.24954,498.93901 c -33.0102,-2.36435 -62.10037,-12.23292 -89.09184,-30.22354 -10.47598,-6.98255 -24.64347,-19.12094 -31.1081,-26.65272 l -3.42308,-3.98816 2.92023,2.35193 c 4.98354,4.01368 16.52864,11.23313 23.50718,14.69964 13.5491,6.73035 30.03892,11.85139 45.63733,14.17301 9.53732,1.41951 34.51703,1.61811 43.44654,0.34541 43.50972,-6.20133 81.27827,-25.17914 112.4793,-56.51817 33.66054,-33.80943 53.40681,-76.30861 56.63388,-121.89098 2.48869,-35.15305 -7.27265,-71.1053 -26.54232,-97.75875 -2.03378,-2.81306 -4.09889,-5.7333 -4.58913,-6.48939 -0.49025,-0.7561 3.30853,2.8596 8.44172,8.0349 14.4624,14.58102 23.89617,27.83603 33.02289,46.39919 8.1678,16.61276 12.85446,30.99843 15.90421,48.81787 7.75456,45.30908 -2.09046,91.44279 -27.68818,129.74652 -20.71786,31.00164 -51.73498,55.42492 -86.70433,68.27208 -22.35107,8.21142 -50.23847,12.30043 -72.8463,10.68116 z m -58.47015,-71.9639 C 142.4104,423.13484 110.40885,409.6631 83.695521,388.21045 74.697138,380.98411 60.690882,366.49851 53.691284,357.17937 31.020967,326.99645 19.079574,293.08401 17.728805,255.04912 15.936296,204.57537 35.236867,156.69106 71.742232,121.04307 c 5.408868,-5.28182 6.439144,-6.08434 4.582227,-3.56917 -15.167119,20.54363 -23.920285,40.91727 -28.334566,65.95069 -1.994055,11.30874 -2.470506,31.92289 -1.025391,44.36905 4.302277,37.0531 18.848349,70.64476 43.556303,100.58566 6.388405,7.74141 21.818475,22.96702 29.515335,29.12423 3.03381,2.42691 9.6384,7.15666 14.67692,10.51053 23.04117,15.3373 46.93849,24.82541 74.55229,29.60001 11.53993,1.9953 40.90278,2.1739 51.59071,0.31377 25.14599,-4.37639 46.91393,-13.38398 64.62464,-26.74174 l 5.55319,-4.1883 -4.10205,4.62596 c -4.75953,5.36746 -14.31635,14.05172 -21.29894,19.35432 -26.77074,20.32978 -56.04371,32.14565 -89.2667,36.03194 -10.19726,1.19285 -30.06702,1.17574 -40.58681,-0.0349 z m 270.81645,-33.44959 c 26.81231,-35.63291 35.21215,-84.3669 22.90792,-132.90679 -6.38087,-25.17239 -19.55091,-51.22813 -36.88174,-72.96712 -7.18937,-9.01802 -23.86807,-25.49001 -32.89286,-32.48519 -27.99007,-21.69531 -58.28214,-34.80196 -91.82496,-39.73047 -9.80664,-1.4409 -34.74726,-1.63046 -43.47897,-0.33045 -26.89166,4.00372 -52.84206,14.47706 -70.08548,28.28583 -5.51301,4.41491 -4.19456,2.72505 4.86704,-6.23817 13.86058,-13.71005 27.94301,-23.91949 44.77685,-32.46219 50.02671,-25.387118 109.57364,-25.593396 159.96362,-0.55411 27.83912,13.83353 49.76452,32.62621 67.4229,57.7894 41.67124,59.38156 42.92856,139.45361 3.14354,200.1979 -7.94846,12.13583 -19.87589,26.32961 -28.14615,33.49427 l -3.86794,3.35084 z M 245.60597,344.48019 c -19.23809,-2.49624 -36.68315,-10.26948 -49.86582,-22.21939 -15.15654,-13.73919 -24.49266,-29.96639 -28.77542,-50.01478 -1.66312,-7.78537 -1.66461,-27.24519 -0.002,-35.04274 7.63697,-35.83179 34.50237,-62.9607 69.88325,-70.56869 9.66665,-2.07867 24.93605,-2.34464 34.39379,-0.59912 35.01689,6.46265 62.75071,32.22837 71.41196,66.34432 7.8576,30.95036 -0.86346,63.32935 -23.06594,85.6377 -14.65953,14.7294 -31.92261,23.3488 -52.49389,26.21001 -4.74567,0.66005 -17.21543,0.80672 -21.48524,0.25269 z M 142.63341,320.73217 C 120.43037,298.5972 104.96169,272.42864 96.393319,242.50715 93.77396,233.36016 91.114162,218.80304 90.207117,208.64994 86.696615,169.35478 97.275429,128.09973 119.36082,94.956835 126.96884,83.539728 132.36252,76.922378 141.77301,67.459892 188.80287,20.170229 256.89472,3.3027931 321.85638,22.850416 c 27.21313,8.188644 53.42858,24.340105 74.62808,45.978623 l 7.4628,7.61736 -5.31272,-3.981653 C 342.4617,30.365655 260.20248,34.147221 196.99831,81.734214 159.39758,110.04416 132.00333,151.67923 122.39473,195.12018 c -3.2213,14.56368 -3.91904,21.2637 -3.94323,37.86499 -0.0256,17.57993 0.82902,25.15494 4.45524,39.48967 4.83121,19.0981 13.78081,37.68214 25.12522,52.17306 1.74635,2.23072 3.04523,4.05586 2.88638,4.05586 -0.15883,0 -3.88707,-3.58722 -8.28493,-7.97159 z"
     id="path2" /></svg>
